<svg xmlns="http://www.w3.org/2000/svg" xmlns:xlink="http://www.w3.org/1999/xlink" width="148.504" height="58.096" viewBox="0 0 148.504 58.096">
  <defs>
    <linearGradient id="linear-gradient" x1="-1.717" y1="-0.484" x2="6.244" y2="3.051" gradientUnits="objectBoundingBox">
      <stop offset="0" stop-color="#024581"/>
      <stop offset="1" stop-color="#0377df"/>
    </linearGradient>
    <linearGradient id="linear-gradient-2" x1="-0.199" y1="0.19" x2="2.312" y2="1.304" gradientUnits="objectBoundingBox">
      <stop offset="0" stop-color="#024581"/>
      <stop offset="0.264" stop-color="#025baa"/>
      <stop offset="1" stop-color="#0377df"/>
    </linearGradient>
  </defs>
  <g id="logo" transform="translate(-409.177 -383.828)">
    <g id="Group_2" data-name="Group 2" transform="translate(409.177 383.828)">
      <circle id="Ellipse_1" data-name="Ellipse 1" cx="9.161" cy="9.161" r="9.161" transform="translate(19.888 19.888)" fill="url(#linear-gradient)"/>
      <path id="Path_23" data-name="Path 23" d="M447.837,429.7a19.418,19.418,0,1,1,7.219-7.224l7,7a29.063,29.063,0,1,0-7.229,7.229Z" transform="translate(-409.177 -383.828)" fill="url(#linear-gradient-2)"/>
    </g>
    <path id="Path_4378" data-name="Path 4378" d="M-7.452.216a6.881,6.881,0,0,1-2.646-.5,6.532,6.532,0,0,1-2.133-1.4,6.553,6.553,0,0,1-1.422-2.1,6.487,6.487,0,0,1-.513-2.583,6.569,6.569,0,0,1,.5-2.592,6.357,6.357,0,0,1,1.413-2.079,6.509,6.509,0,0,1,2.124-1.386,6.923,6.923,0,0,1,2.637-.495,6.971,6.971,0,0,1,2.655.495,6.509,6.509,0,0,1,2.124,1.386A6.333,6.333,0,0,1-1.3-8.955a6.634,6.634,0,0,1,.5,2.6,6.588,6.588,0,0,1-.5,2.583A6.333,6.333,0,0,1-2.709-1.683a6.657,6.657,0,0,1-2.115,1.4A6.747,6.747,0,0,1-7.452.216Zm-.036-2.574a3.831,3.831,0,0,0,2-.5A3.5,3.5,0,0,0-4.167-4.275a4.448,4.448,0,0,0,.477-2.1A4.662,4.662,0,0,0-3.96-8a3.645,3.645,0,0,0-.774-1.26,3.359,3.359,0,0,0-1.2-.81,4.137,4.137,0,0,0-1.557-.279,3.849,3.849,0,0,0-1.98.495,3.465,3.465,0,0,0-1.323,1.386,4.38,4.38,0,0,0-.477,2.1A4.738,4.738,0,0,0-11-4.734a3.629,3.629,0,0,0,.774,1.269,3.461,3.461,0,0,0,1.2.819A3.974,3.974,0,0,0-7.488-2.358Zm5.706,3.366-5.94-5.94L-6.084-6.57-.144-.63ZM7.29.216a6.881,6.881,0,0,1-2.646-.5,6.532,6.532,0,0,1-2.133-1.4,6.553,6.553,0,0,1-1.422-2.1A6.487,6.487,0,0,1,.576-6.372a6.569,6.569,0,0,1,.5-2.592,6.357,6.357,0,0,1,1.413-2.079,6.509,6.509,0,0,1,2.124-1.386,6.923,6.923,0,0,1,2.637-.495,6.971,6.971,0,0,1,2.655.495,6.509,6.509,0,0,1,2.124,1.386,6.333,6.333,0,0,1,1.413,2.088,6.634,6.634,0,0,1,.5,2.6,6.588,6.588,0,0,1-.5,2.583,6.333,6.333,0,0,1-1.413,2.088,6.657,6.657,0,0,1-2.115,1.4A6.747,6.747,0,0,1,7.29.216ZM7.254-2.358a3.831,3.831,0,0,0,2-.5,3.5,3.5,0,0,0,1.323-1.413,4.448,4.448,0,0,0,.477-2.1A4.662,4.662,0,0,0,10.782-8a3.645,3.645,0,0,0-.774-1.26,3.359,3.359,0,0,0-1.2-.81,4.137,4.137,0,0,0-1.557-.279,3.849,3.849,0,0,0-1.98.495A3.465,3.465,0,0,0,3.951-8.469a4.38,4.38,0,0,0-.477,2.1,4.738,4.738,0,0,0,.27,1.638,3.629,3.629,0,0,0,.774,1.269,3.461,3.461,0,0,0,1.2.819A3.974,3.974,0,0,0,7.254-2.358ZM12.96,1.008,7.02-4.932,8.658-6.57,14.6-.63Z" transform="translate(489.177 405.376)" fill="#024581"/>
    <path id="Path_4377" data-name="Path 4377" d="M.5,16,5.04,4.9H6.128L10.656,16H9.024L5.3,6.608h.56L2.1,16Zm2.16-2.512V12.176H8.5v1.312ZM14.608,16.16a4.239,4.239,0,0,1-1.208-.168,3.985,3.985,0,0,1-1.048-.48,3.586,3.586,0,0,1-.832-.744l.928-.928a2.651,2.651,0,0,0,.96.76,2.9,2.9,0,0,0,1.216.248,1.952,1.952,0,0,0,1.04-.232.727.727,0,0,0,.368-.648.777.777,0,0,0-.3-.648,2.471,2.471,0,0,0-.76-.384q-.464-.152-.984-.3a5.486,5.486,0,0,1-.984-.392,2.1,2.1,0,0,1-.76-.656,1.866,1.866,0,0,1-.3-1.1,2.1,2.1,0,0,1,.336-1.192,2.172,2.172,0,0,1,.936-.776,3.491,3.491,0,0,1,1.448-.272,3.855,3.855,0,0,1,1.592.312,2.791,2.791,0,0,1,1.144.936l-.928.928a2.148,2.148,0,0,0-.792-.64,2.451,2.451,0,0,0-1.064-.224,1.735,1.735,0,0,0-.952.216.732.732,0,0,0-.04,1.192,2.589,2.589,0,0,0,.76.352q.472.144.984.3a4.9,4.9,0,0,1,.976.408,2.191,2.191,0,0,1,.76.688,1.973,1.973,0,0,1,.3,1.136,2.078,2.078,0,0,1-.76,1.7A3.117,3.117,0,0,1,14.608,16.16Zm6.832,0a4.239,4.239,0,0,1-1.208-.168,3.985,3.985,0,0,1-1.048-.48,3.586,3.586,0,0,1-.832-.744l.928-.928a2.651,2.651,0,0,0,.96.76,2.9,2.9,0,0,0,1.216.248,1.952,1.952,0,0,0,1.04-.232.727.727,0,0,0,.368-.648.777.777,0,0,0-.3-.648,2.471,2.471,0,0,0-.76-.384q-.464-.152-.984-.3a5.486,5.486,0,0,1-.984-.392,2.1,2.1,0,0,1-.76-.656,1.866,1.866,0,0,1-.3-1.1,2.1,2.1,0,0,1,.336-1.192,2.172,2.172,0,0,1,.936-.776A3.491,3.491,0,0,1,21.5,8.24a3.855,3.855,0,0,1,1.592.312,2.791,2.791,0,0,1,1.144.936l-.928.928a2.148,2.148,0,0,0-.792-.64,2.451,2.451,0,0,0-1.064-.224,1.735,1.735,0,0,0-.952.216.732.732,0,0,0-.04,1.192,2.589,2.589,0,0,0,.76.352q.472.144.984.3a4.9,4.9,0,0,1,.976.408,2.191,2.191,0,0,1,.76.688,1.973,1.973,0,0,1,.3,1.136,2.078,2.078,0,0,1-.76,1.7A3.117,3.117,0,0,1,21.44,16.16Zm7.936,0a4.061,4.061,0,0,1-2.048-.52,3.862,3.862,0,0,1-1.44-1.416,3.926,3.926,0,0,1-.528-2.032,3.942,3.942,0,0,1,.52-2.016,3.851,3.851,0,0,1,3.4-1.936,3.58,3.58,0,0,1,1.864.48,3.367,3.367,0,0,1,1.264,1.328,3.989,3.989,0,0,1,.456,1.92q0,.16-.016.344a3.931,3.931,0,0,1-.064.424H26.368v-1.2h5.648L31.488,12a2.857,2.857,0,0,0-.272-1.3,2,2,0,0,0-.768-.832,2.3,2.3,0,0,0-1.2-.3,2.566,2.566,0,0,0-1.3.32,2.185,2.185,0,0,0-.864.9,2.875,2.875,0,0,0-.3,1.36,2.932,2.932,0,0,0,.32,1.4,2.249,2.249,0,0,0,.912.928,2.759,2.759,0,0,0,1.36.328,3.02,3.02,0,0,0,1.176-.224,2.433,2.433,0,0,0,.92-.672l.928.944a3.543,3.543,0,0,1-1.336.976A4.277,4.277,0,0,1,29.376,16.16Zm7.472,0a4.239,4.239,0,0,1-1.208-.168,3.985,3.985,0,0,1-1.048-.48,3.586,3.586,0,0,1-.832-.744l.928-.928a2.651,2.651,0,0,0,.96.76,2.9,2.9,0,0,0,1.216.248,1.952,1.952,0,0,0,1.04-.232.727.727,0,0,0,.368-.648.777.777,0,0,0-.3-.648,2.471,2.471,0,0,0-.76-.384q-.464-.152-.984-.3a5.486,5.486,0,0,1-.984-.392,2.1,2.1,0,0,1-.76-.656,1.866,1.866,0,0,1-.3-1.1,2.1,2.1,0,0,1,.336-1.192,2.172,2.172,0,0,1,.936-.776,3.491,3.491,0,0,1,1.448-.272,3.855,3.855,0,0,1,1.592.312,2.791,2.791,0,0,1,1.144.936l-.928.928a2.148,2.148,0,0,0-.792-.64,2.451,2.451,0,0,0-1.064-.224,1.735,1.735,0,0,0-.952.216.732.732,0,0,0-.04,1.192,2.589,2.589,0,0,0,.76.352q.472.144.984.3a4.9,4.9,0,0,1,.976.408,2.191,2.191,0,0,1,.76.688,1.973,1.973,0,0,1,.3,1.136,2.078,2.078,0,0,1-.76,1.7A3.117,3.117,0,0,1,36.848,16.16Zm6.832,0a4.239,4.239,0,0,1-1.208-.168,3.985,3.985,0,0,1-1.048-.48,3.586,3.586,0,0,1-.832-.744l.928-.928a2.651,2.651,0,0,0,.96.76,2.9,2.9,0,0,0,1.216.248,1.952,1.952,0,0,0,1.04-.232.727.727,0,0,0,.368-.648.777.777,0,0,0-.3-.648,2.471,2.471,0,0,0-.76-.384q-.464-.152-.984-.3a5.486,5.486,0,0,1-.984-.392,2.1,2.1,0,0,1-.76-.656,1.866,1.866,0,0,1-.3-1.1,2.1,2.1,0,0,1,.336-1.192,2.172,2.172,0,0,1,.936-.776,3.491,3.491,0,0,1,1.448-.272,3.855,3.855,0,0,1,1.592.312,2.791,2.791,0,0,1,1.144.936l-.928.928a2.148,2.148,0,0,0-.792-.64A2.451,2.451,0,0,0,43.7,9.552a1.735,1.735,0,0,0-.952.216.732.732,0,0,0-.04,1.192,2.589,2.589,0,0,0,.76.352q.472.144.984.3a4.9,4.9,0,0,1,.976.408,2.191,2.191,0,0,1,.76.688,1.973,1.973,0,0,1,.3,1.136,2.078,2.078,0,0,1-.76,1.7A3.117,3.117,0,0,1,43.68,16.16ZM48.1,16V8.4h1.44V16Zm5.136,0V11.408a1.743,1.743,0,0,0-.52-1.336,1.831,1.831,0,0,0-1.3-.488,1.959,1.959,0,0,0-.944.224,1.8,1.8,0,0,0-.672.624,1.743,1.743,0,0,0-.256.96l-.592-.288a2.915,2.915,0,0,1,.376-1.5,2.657,2.657,0,0,1,1.032-1,3.172,3.172,0,0,1,2.92-.008,2.615,2.615,0,0,1,1.024.992,2.948,2.948,0,0,1,.376,1.52V16Zm5.136,0V11.408a1.743,1.743,0,0,0-.52-1.336,1.81,1.81,0,0,0-1.288-.488,2.006,2.006,0,0,0-.952.224,1.781,1.781,0,0,0-.68.624,1.743,1.743,0,0,0-.256.96l-.816-.288a2.948,2.948,0,0,1,.472-1.512,3.014,3.014,0,0,1,1.1-.992,3.254,3.254,0,0,1,2.96-.008,2.714,2.714,0,0,1,1.048.992,2.885,2.885,0,0,1,.392,1.536V16Zm6.928.16a4.061,4.061,0,0,1-2.048-.52,3.862,3.862,0,0,1-1.44-1.416,3.926,3.926,0,0,1-.528-2.032,3.942,3.942,0,0,1,.52-2.016A3.851,3.851,0,0,1,65.2,8.24a3.58,3.58,0,0,1,1.864.48,3.367,3.367,0,0,1,1.264,1.328,3.989,3.989,0,0,1,.456,1.92q0,.16-.016.344a3.934,3.934,0,0,1-.064.424H62.288v-1.2h5.648L67.408,12a2.856,2.856,0,0,0-.272-1.3,2,2,0,0,0-.768-.832,2.3,2.3,0,0,0-1.2-.3,2.566,2.566,0,0,0-1.3.32,2.185,2.185,0,0,0-.864.9,2.875,2.875,0,0,0-.3,1.36,2.932,2.932,0,0,0,.32,1.4,2.249,2.249,0,0,0,.912.928,2.759,2.759,0,0,0,1.36.328,3.02,3.02,0,0,0,1.176-.224,2.433,2.433,0,0,0,.92-.672l.928.944a3.543,3.543,0,0,1-1.336.976A4.277,4.277,0,0,1,65.3,16.16ZM75.728,16V11.568a1.96,1.96,0,0,0-.544-1.424,1.876,1.876,0,0,0-1.408-.56,2.027,2.027,0,0,0-1.024.256,1.859,1.859,0,0,0-.7.7,2.027,2.027,0,0,0-.256,1.024l-.592-.336A3.04,3.04,0,0,1,71.584,9.7a2.814,2.814,0,0,1,1.072-1.064,3.079,3.079,0,0,1,1.552-.392,2.739,2.739,0,0,1,1.528.432A3.128,3.128,0,0,1,76.784,9.8a3.018,3.018,0,0,1,.384,1.48V16Zm-5.376,0V8.4h1.44V16Zm9.84,0V5.216h1.44V16ZM78.32,9.712V8.4H83.5V9.712ZM4.4,32.16a4.825,4.825,0,0,1-2.24-.48A5.066,5.066,0,0,1,.512,30.288l1.024-1.024a3.675,3.675,0,0,0,1.216,1.112,3.5,3.5,0,0,0,1.7.376A2.667,2.667,0,0,0,6.04,30.32a1.381,1.381,0,0,0,.6-1.184,1.638,1.638,0,0,0-.288-1.008,2.187,2.187,0,0,0-.776-.632,8.505,8.505,0,0,0-1.064-.448q-.576-.2-1.152-.432A5.031,5.031,0,0,1,2.3,26.04a2.566,2.566,0,0,1-.776-.9,2.993,2.993,0,0,1-.3-1.408,2.771,2.771,0,0,1,.456-1.608A2.962,2.962,0,0,1,2.936,21.1a4.264,4.264,0,0,1,1.784-.36,4.373,4.373,0,0,1,1.952.424A4.017,4.017,0,0,1,8.08,22.272L7.056,23.3a3.519,3.519,0,0,0-1.064-.864,2.845,2.845,0,0,0-1.3-.288,2.337,2.337,0,0,0-1.424.392,1.287,1.287,0,0,0-.528,1.1,1.337,1.337,0,0,0,.3.9,2.454,2.454,0,0,0,.776.584,8.64,8.64,0,0,0,1.064.44q.584.2,1.16.44a4.694,4.694,0,0,1,1.056.608,2.736,2.736,0,0,1,.776.952,3.223,3.223,0,0,1,.3,1.464,2.815,2.815,0,0,1-1.016,2.3A4.2,4.2,0,0,1,4.4,32.16Zm8.9,0a3.9,3.9,0,0,1-2.016-.528,3.943,3.943,0,0,1-1.952-3.456,3.823,3.823,0,0,1,.528-1.992,3.982,3.982,0,0,1,1.424-1.416A3.9,3.9,0,0,1,13.3,24.24a3.955,3.955,0,0,1,2.008.52,3.876,3.876,0,0,1,1.96,3.416A3.928,3.928,0,0,1,13.3,32.16Zm0-1.392a2.439,2.439,0,0,0,1.28-.336,2.393,2.393,0,0,0,.88-.92,2.735,2.735,0,0,0,.32-1.336,2.6,2.6,0,0,0-.328-1.312A2.386,2.386,0,0,0,13.3,25.632a2.485,2.485,0,0,0-1.28.328,2.35,2.35,0,0,0-.88.9,2.656,2.656,0,0,0-.32,1.312,2.735,2.735,0,0,0,.32,1.336,2.393,2.393,0,0,0,.88.92A2.439,2.439,0,0,0,13.3,30.768ZM18.88,32V20.576h1.44V32Zm6.624.16a3.348,3.348,0,0,1-1.688-.424,3,3,0,0,1-1.16-1.176,3.544,3.544,0,0,1-.416-1.744V24.4h1.44v4.352a2.5,2.5,0,0,0,.216,1.08,1.543,1.543,0,0,0,.632.7,1.919,1.919,0,0,0,.976.24,1.691,1.691,0,0,0,1.328-.536,2.139,2.139,0,0,0,.48-1.48V24.4h1.44v4.416a3.544,3.544,0,0,1-.416,1.744,3.032,3.032,0,0,1-1.144,1.176A3.293,3.293,0,0,1,25.5,32.16ZM31.856,32V21.216H33.3V32Zm-1.872-6.288V24.4h5.184v1.312ZM36.592,32V24.4h1.44V32Zm.72-9.12a.874.874,0,0,1-.656-.264.915.915,0,0,1-.256-.664.9.9,0,0,1,.256-.648.947.947,0,0,1,1.312,0,.9.9,0,0,1,.256.648.915.915,0,0,1-.256.664A.874.874,0,0,1,37.312,22.88Zm6.32,9.28a3.9,3.9,0,0,1-2.016-.528,3.943,3.943,0,0,1-1.952-3.456,3.823,3.823,0,0,1,.528-1.992,3.982,3.982,0,0,1,1.424-1.416,3.9,3.9,0,0,1,2.016-.528,3.955,3.955,0,0,1,2.008.52,3.876,3.876,0,0,1,1.96,3.416,3.928,3.928,0,0,1-3.968,3.984Zm0-1.392a2.439,2.439,0,0,0,1.28-.336,2.393,2.393,0,0,0,.88-.92,2.735,2.735,0,0,0,.32-1.336,2.6,2.6,0,0,0-.328-1.312,2.386,2.386,0,0,0-2.152-1.232,2.485,2.485,0,0,0-1.28.328,2.35,2.35,0,0,0-.88.9,2.656,2.656,0,0,0-.32,1.312,2.735,2.735,0,0,0,.32,1.336,2.393,2.393,0,0,0,.88.92A2.439,2.439,0,0,0,43.632,30.768ZM54.592,32V27.568a1.96,1.96,0,0,0-.544-1.424,1.876,1.876,0,0,0-1.408-.56,2.027,2.027,0,0,0-1.024.256,1.859,1.859,0,0,0-.7.7,2.027,2.027,0,0,0-.256,1.024l-.592-.336a3.041,3.041,0,0,1,.384-1.536,2.814,2.814,0,0,1,1.072-1.064,3.079,3.079,0,0,1,1.552-.392,2.739,2.739,0,0,1,1.528.432A3.128,3.128,0,0,1,55.648,25.8a3.018,3.018,0,0,1,.384,1.48V32Zm-5.376,0V24.4h1.44V32Z" transform="translate(474.177 406.376)" fill="#024581"/>
  </g>
</svg>
